<?xml version="1.0" encoding="UTF-8"?>
<svg version="1.1" xmlns="http://www.w3.org/2000/svg" width="256" height="256">
<path d="M0 0 C0.83182114 -0.00453111 1.66364228 -0.00906223 2.52067012 -0.01373065 C5.3002699 -0.0263629 8.07967345 -0.02475503 10.85929871 -0.02310181 C12.85541027 -0.02908779 14.85151952 -0.0358935 16.84762573 -0.04345703 C22.26506972 -0.06111716 27.68245052 -0.06581242 33.09992051 -0.0670886 C36.48607111 -0.06851076 39.87220567 -0.07278159 43.25835228 -0.07808304 C55.07586562 -0.0965834 66.89333386 -0.10475365 78.71086121 -0.10317993 C89.71945077 -0.10197855 100.72784426 -0.12308028 111.73638421 -0.15466726 C121.19390179 -0.18083502 130.65135534 -0.19154701 140.10890883 -0.19026911 C145.75476232 -0.18975963 151.40044155 -0.19543563 157.04625893 -0.21662521 C162.35771629 -0.23601586 167.66883331 -0.23612624 172.98030281 -0.22159195 C174.92611438 -0.21950379 176.8719473 -0.22420514 178.81772232 -0.23631287 C197.63626356 -0.34579827 197.63626356 -0.34579827 204.59440613 4.26742554 C205.30754376 4.71281488 206.0206814 5.15820423 206.75542927 5.61709023 C214.14549624 10.41593158 219.2697245 17.82274218 221.59440613 26.26742554 C221.78151933 29.10325738 221.87322825 31.83919491 221.86183167 34.67301941 C221.86636278 35.50484055 221.87089389 36.33666169 221.87556231 37.19368953 C221.88819456 39.97328931 221.8865867 42.75269285 221.88493347 45.53231812 C221.89091946 47.52842968 221.89772516 49.52453893 221.9052887 51.52064514 C221.92294882 56.93808913 221.92764409 62.35546993 221.92892027 67.77293992 C221.93034242 71.15909052 221.93461325 74.54522508 221.9399147 77.93137169 C221.95841506 89.74888503 221.96658531 101.56635327 221.9650116 113.38388062 C221.96381022 124.39247018 221.98491194 135.40086367 222.01649892 146.40940362 C222.04266668 155.8669212 222.05337868 165.32437475 222.05210078 174.78192824 C222.05159129 180.42778173 222.05726729 186.07346096 222.07845688 191.71927834 C222.09784752 197.0307357 222.0979579 202.34185272 222.08342361 207.65332222 C222.08133546 209.59913379 222.08603681 211.54496671 222.09814453 213.49074173 C222.20762994 232.30928297 222.20762994 232.30928297 217.59440613 239.26742554 C217.14901678 239.98056317 216.70362743 240.69370081 216.24474144 241.42844868 C211.44590009 248.81851565 204.03908948 253.94274391 195.59440613 256.26742554 C192.75857428 256.45453874 190.02263676 256.54624766 187.18881226 256.53485107 C186.35699112 256.53938219 185.52516998 256.5439133 184.66814214 256.54858172 C181.88854236 256.56121397 179.10913881 256.55960611 176.32951355 256.55795288 C174.33340198 256.56393886 172.33729273 256.57074457 170.34118652 256.57830811 C164.92374253 256.59596823 159.50636174 256.6006635 154.08889174 256.60193968 C150.70274115 256.60336183 147.31660659 256.60763266 143.93045998 256.61293411 C132.11294663 256.63143447 120.29547839 256.63960472 108.47795105 256.63803101 C97.46936149 256.63682963 86.46096799 256.65793135 75.45242804 256.68951833 C65.99491047 256.71568609 56.53745692 256.72639809 47.07990342 256.72512019 C41.43404993 256.7246107 35.7883707 256.7302867 30.14255333 256.75147629 C24.83109596 256.77086693 19.51997895 256.77097731 14.20850945 256.75644302 C12.26269788 256.75435487 10.31686496 256.75905621 8.37108994 256.77116394 C-10.4474513 256.88064935 -10.4474513 256.88064935 -17.40559387 252.26742554 C-18.11873151 251.82203619 -18.83186914 251.37664684 -19.56661701 250.91776085 C-26.95668398 246.1189195 -32.08091224 238.71210889 -34.40559387 230.26742554 C-34.59270707 227.43159369 -34.68441599 224.69565616 -34.67301941 221.86183167 C-34.67755052 221.03001053 -34.68208163 220.19818939 -34.68675005 219.34116155 C-34.69938231 216.56156177 -34.69777444 213.78215822 -34.69612122 211.00253296 C-34.7021072 209.00642139 -34.70891291 207.01031214 -34.71647644 205.01420593 C-34.73413656 199.59676194 -34.73883183 194.17938115 -34.74010801 188.76191115 C-34.74153017 185.37576056 -34.74580099 181.989626 -34.75110245 178.60347939 C-34.76960281 166.78596604 -34.77777305 154.9684978 -34.77619934 143.15097046 C-34.77499796 132.1423809 -34.79609969 121.1339874 -34.82768667 110.12544745 C-34.85385443 100.66792988 -34.86456642 91.21047632 -34.86328852 81.75292283 C-34.86277904 76.10706934 -34.86845504 70.46139011 -34.88964462 64.81557274 C-34.90903527 59.50411537 -34.90914565 54.19299836 -34.89461136 48.88152885 C-34.8925232 46.93571728 -34.89722455 44.98988436 -34.90933228 43.04410934 C-35.01881768 24.22556811 -35.01881768 24.22556811 -30.40559387 17.26742554 C-29.96020452 16.5542879 -29.51481518 15.84115026 -29.05592918 15.1064024 C-22.32730432 4.74452862 -12.07621441 -0.04856601 0 0 Z " fill="#100F11" transform="translate(34.40559387207031,-0.267425537109375)"/>
<path d="M0 0 C0.83182114 -0.00453111 1.66364228 -0.00906223 2.52067012 -0.01373065 C5.3002699 -0.0263629 8.07967345 -0.02475503 10.85929871 -0.02310181 C12.85541027 -0.02908779 14.85151952 -0.0358935 16.84762573 -0.04345703 C22.26506972 -0.06111716 27.68245052 -0.06581242 33.09992051 -0.0670886 C36.48607111 -0.06851076 39.87220567 -0.07278159 43.25835228 -0.07808304 C55.07586562 -0.0965834 66.89333386 -0.10475365 78.71086121 -0.10317993 C89.71945077 -0.10197855 100.72784426 -0.12308028 111.73638421 -0.15466726 C121.19390179 -0.18083502 130.65135534 -0.19154701 140.10890883 -0.19026911 C145.75476232 -0.18975963 151.40044155 -0.19543563 157.04625893 -0.21662521 C162.35771629 -0.23601586 167.66883331 -0.23612624 172.98030281 -0.22159195 C174.92611438 -0.21950379 176.8719473 -0.22420514 178.81772232 -0.23631287 C197.63626356 -0.34579827 197.63626356 -0.34579827 204.59440613 4.26742554 C205.30754376 4.71281488 206.0206814 5.15820423 206.75542927 5.61709023 C214.14549624 10.41593158 219.2697245 17.82274218 221.59440613 26.26742554 C221.78151933 29.10325738 221.87322825 31.83919491 221.86183167 34.67301941 C221.86636278 35.50484055 221.87089389 36.33666169 221.87556231 37.19368953 C221.88819456 39.97328931 221.8865867 42.75269285 221.88493347 45.53231812 C221.89091946 47.52842968 221.89772516 49.52453893 221.9052887 51.52064514 C221.92294882 56.93808913 221.92764409 62.35546993 221.92892027 67.77293992 C221.93034242 71.15909052 221.93461325 74.54522508 221.9399147 77.93137169 C221.95841506 89.74888503 221.96658531 101.56635327 221.9650116 113.38388062 C221.96381022 124.39247018 221.98491194 135.40086367 222.01649892 146.40940362 C222.04266668 155.8669212 222.05337868 165.32437475 222.05210078 174.78192824 C222.05159129 180.42778173 222.05726729 186.07346096 222.07845688 191.71927834 C222.09784752 197.0307357 222.0979579 202.34185272 222.08342361 207.65332222 C222.08133546 209.59913379 222.08603681 211.54496671 222.09814453 213.49074173 C222.20762994 232.30928297 222.20762994 232.30928297 217.59440613 239.26742554 C217.14901678 239.98056317 216.70362743 240.69370081 216.24474144 241.42844868 C211.44590009 248.81851565 204.03908948 253.94274391 195.59440613 256.26742554 C192.75857428 256.45453874 190.02263676 256.54624766 187.18881226 256.53485107 C186.35699112 256.53938219 185.52516998 256.5439133 184.66814214 256.54858172 C181.88854236 256.56121397 179.10913881 256.55960611 176.32951355 256.55795288 C174.33340198 256.56393886 172.33729273 256.57074457 170.34118652 256.57830811 C164.92374253 256.59596823 159.50636174 256.6006635 154.08889174 256.60193968 C150.70274115 256.60336183 147.31660659 256.60763266 143.93045998 256.61293411 C132.11294663 256.63143447 120.29547839 256.63960472 108.47795105 256.63803101 C97.46936149 256.63682963 86.46096799 256.65793135 75.45242804 256.68951833 C65.99491047 256.71568609 56.53745692 256.72639809 47.07990342 256.72512019 C41.43404993 256.7246107 35.7883707 256.7302867 30.14255333 256.75147629 C24.83109596 256.77086693 19.51997895 256.77097731 14.20850945 256.75644302 C12.26269788 256.75435487 10.31686496 256.75905621 8.37108994 256.77116394 C-10.4474513 256.88064935 -10.4474513 256.88064935 -17.40559387 252.26742554 C-18.11873151 251.82203619 -18.83186914 251.37664684 -19.56661701 250.91776085 C-26.95668398 246.1189195 -32.08091224 238.71210889 -34.40559387 230.26742554 C-34.59270707 227.43159369 -34.68441599 224.69565616 -34.67301941 221.86183167 C-34.67755052 221.03001053 -34.68208163 220.19818939 -34.68675005 219.34116155 C-34.69938231 216.56156177 -34.69777444 213.78215822 -34.69612122 211.00253296 C-34.7021072 209.00642139 -34.70891291 207.01031214 -34.71647644 205.01420593 C-34.73413656 199.59676194 -34.73883183 194.17938115 -34.74010801 188.76191115 C-34.74153017 185.37576056 -34.74580099 181.989626 -34.75110245 178.60347939 C-34.76960281 166.78596604 -34.77777305 154.9684978 -34.77619934 143.15097046 C-34.77499796 132.1423809 -34.79609969 121.1339874 -34.82768667 110.12544745 C-34.85385443 100.66792988 -34.86456642 91.21047632 -34.86328852 81.75292283 C-34.86277904 76.10706934 -34.86845504 70.46139011 -34.88964462 64.81557274 C-34.90903527 59.50411537 -34.90914565 54.19299836 -34.89461136 48.88152885 C-34.8925232 46.93571728 -34.89722455 44.98988436 -34.90933228 43.04410934 C-35.01881768 24.22556811 -35.01881768 24.22556811 -30.40559387 17.26742554 C-29.96020452 16.5542879 -29.51481518 15.84115026 -29.05592918 15.1064024 C-22.32730432 4.74452862 -12.07621441 -0.04856601 0 0 Z M-16.71809387 16.51742554 C-17.64041809 17.29859741 -17.64041809 17.29859741 -18.58137512 18.09555054 C-23.38428775 23.81379341 -25.00119751 29.40755066 -24.92025757 36.76167297 C-24.9272031 37.57886875 -24.93414863 38.39606453 -24.94130462 39.23802382 C-24.95949429 41.95635995 -24.94933301 44.67381538 -24.93904114 47.3921814 C-24.94610368 49.34918365 -24.95485011 51.30618044 -24.96514893 53.26316833 C-24.98761489 58.56487253 -24.98470966 63.8662778 -24.97582746 69.16801143 C-24.9707106 73.59892531 -24.97801581 78.02978338 -24.98529953 82.46069151 C-25.00228967 92.91576921 -24.99874154 103.37070092 -24.98200989 113.82577515 C-24.96508766 124.60157905 -24.98092669 135.37697789 -25.01323277 146.15273756 C-25.03994639 155.41498905 -25.04719991 164.67711459 -25.03871769 173.93940073 C-25.0337939 179.46675614 -25.03597466 184.99386784 -25.0565052 190.52119255 C-25.07489011 195.71950422 -25.06886897 200.91723415 -25.0443058 206.11551476 C-25.03930694 208.01939353 -25.04276357 209.92331684 -25.05545425 211.82715988 C-25.12385031 222.97252464 -24.92738525 230.76471712 -17.44856262 239.57211304 C-16.83625793 240.09031616 -16.22395325 240.60851929 -15.59309387 241.14242554 C-14.98852356 241.67609741 -14.38395325 242.20976929 -13.76106262 242.75961304 C-7.82717601 246.55808772 -2.10932016 247.71320075 4.84068298 247.66856384 C5.63126075 247.67536051 6.42183852 247.68215718 7.23637319 247.68915981 C9.86464328 247.70803061 12.49244332 247.70570159 15.12077332 247.70321655 C17.0137949 247.71220047 18.906811 247.72241017 20.79981995 247.73374939 C25.92811712 247.76019036 31.05626401 247.7672804 36.18462276 247.76919675 C39.39292133 247.77133288 42.601182 247.7777446 45.80947113 247.7856884 C57.01450007 247.81342327 68.21942212 247.82569636 79.42448425 247.82333374 C89.8492264 247.82153236 100.27350234 247.85317488 110.69812655 247.90056473 C119.66487772 247.93986633 128.63147699 247.95588227 137.59831357 247.95396751 C142.94642878 247.9532047 148.29412952 247.96163889 153.64215851 247.99350166 C158.67555853 248.02267259 163.7081515 248.02269679 168.74158096 248.00095177 C170.58132489 247.99782986 172.4211202 248.00480988 174.26077652 248.02303314 C185.76137419 248.12951224 195.29170664 247.48064193 204.50243759 239.64405155 C206.10843104 237.94004469 207.35321533 236.25018182 208.59440613 234.26742554 C208.95771782 233.71552268 209.32102951 233.16361982 209.69535065 232.59499264 C214.03643553 224.56997446 213.15450586 215.44862405 213.11198425 206.59579468 C213.11741003 204.69938114 213.12453524 202.80297183 213.13322449 200.90657043 C213.15140775 195.77425842 213.1444106 190.64226925 213.13170815 185.50995183 C213.1215531 180.12811135 213.13098091 174.74629779 213.13725281 169.36445618 C213.14452254 160.32693541 213.13495982 151.28954555 213.1158905 142.25204468 C213.09412971 131.81880923 213.10117017 121.38588657 213.12319613 110.95265871 C213.14137717 101.97996893 213.14389502 93.00737304 213.13344145 84.03467077 C213.12722055 78.68227766 213.12633209 73.33003133 213.1395874 67.97764778 C213.1511844 62.94353106 213.14304993 57.90981556 213.12001038 52.87574196 C213.11474354 51.03356338 213.11620218 49.19135075 213.12506104 47.34918594 C213.20610803 31.23486796 213.20610803 31.23486796 205.53190613 17.45492554 C195.40354984 8.45621874 184.46159808 8.54797194 171.67985535 8.63632202 C169.78152296 8.63117633 167.88319536 8.62389017 165.98487854 8.61463928 C160.85680825 8.59620243 155.72926117 8.60901404 150.60121298 8.62872958 C145.22158852 8.64517648 139.84199563 8.63629502 134.46235657 8.63121033 C125.43255809 8.6266969 116.40296727 8.64251463 107.37321472 8.67050171 C96.94672508 8.70256952 86.52060946 8.70252782 76.0940932 8.68528694 C66.04377692 8.66940322 55.99359723 8.67616606 45.9432869 8.69322395 C41.67474335 8.70008056 37.40630974 8.69907634 33.13776779 8.691679 C28.10935587 8.68399695 23.08136784 8.696205 18.05302811 8.72352791 C16.21204638 8.73039194 14.37102492 8.73053106 12.53004456 8.72331238 C1.49381315 8.68503621 -8.02998428 8.85254085 -16.71809387 16.51742554 Z " fill="#830097" transform="translate(34.40559387207031,-0.267425537109375)"/>
<path d="M0 0 C3.63 0 7.26 0 11 0 C11 19.8 11 39.6 11 60 C7.37 60 3.74 60 0 60 C-0.495 57.525 -0.495 57.525 -1 55 C-1.40089844 55.433125 -1.80179688 55.86625 -2.21484375 56.3125 C-5.46806661 59.49933056 -7.83336004 61.44243208 -12.5 61.5625 C-18.31438967 61.1175212 -22.49619486 59.43545036 -26.75 55.375 C-32.09137818 48.18264918 -33.01050802 39.71988942 -32 31 C-30.32079469 24.16933433 -27.85108703 19.90072468 -22 16 C-21.38125 15.566875 -20.7625 15.13375 -20.125 14.6875 C-15.3275971 13.13539906 -11.26074489 13.50045957 -6.6875 15.3125 C-4 17 -4 17 -1 20 C-0.67 13.4 -0.34 6.8 0 0 Z " fill="#5C009B" transform="translate(169,98)"/>
<path d="M0 0 C6.67524717 3.79572878 9.92388756 6.79705973 12.4921875 14.0703125 C14.40718057 21.62270088 13.70352093 28.48886643 10.5234375 35.58203125 C7.37662384 40.83592189 2.9457098 43.91031111 -2.8125 45.8125 C-9.44976414 46.56628958 -15.01209829 46.17673299 -20.8125 42.8125 C-25.20165749 39.13785652 -29.11418311 34.52211502 -30.19799805 28.76464844 C-30.34762709 26.60016528 -30.35905815 24.48133362 -30.3125 22.3125 C-30.32796875 21.59191406 -30.3434375 20.87132812 -30.359375 20.12890625 C-30.31355927 13.79488197 -28.38877328 9.597813 -24.03125 4.88671875 C-23.4640625 4.42910156 -22.896875 3.97148438 -22.3125 3.5 C-21.7453125 3.02949219 -21.178125 2.55898437 -20.59375 2.07421875 C-14.22980079 -2.43357861 -7.31959264 -2.27987312 0 0 Z " fill="#A3008E" transform="translate(116.8125,113.1875)"/>
<path d="M0 0 C3.63568586 3.7426178 5.98553779 7.26989466 6.375 12.625 C6.2925 13.470625 6.21 14.31625 6.125 15.1875 C2.67766304 15.66945779 -0.45000973 15.89357492 -3.875 15.1875 C-5.64997648 13.29130562 -6.63932324 11.40652775 -7.8203125 9.1015625 C-8.78794781 7.00630789 -8.78794781 7.00630789 -11.0625 5.6875 C-16.83133008 4.66193021 -21.84716717 4.24868851 -27.25 6.75 C-31.41648112 10.61887532 -34.00577016 14.61871994 -34.40625 20.30859375 C-34.42303889 21.74733559 -34.41200902 23.18663625 -34.375 24.625 C-34.36291504 25.37418701 -34.35083008 26.12337402 -34.33837891 26.89526367 C-34.07881811 34.10397483 -32.63891688 38.49099573 -27.3125 43.6875 C-22.42813771 45.81885809 -18.12355671 45.95291452 -12.875 45.1875 C-7.85452501 42.85656518 -5.9512074 40.26267365 -3.875 35.1875 C-0.245 35.1875 3.385 35.1875 7.125 35.1875 C5.48576031 43.38369847 1.97126009 48.53880488 -4.875 53.1875 C-11.32358002 56.96574292 -18.59765477 57.00620134 -25.875 56.1875 C-31.36894107 54.54988295 -35.1053713 51.48068825 -38.875 47.1875 C-39.57625 46.445 -40.2775 45.7025 -41 44.9375 C-46.92630097 36.24559191 -47.29788715 25.38946269 -45.875 15.1875 C-43.02158902 5.8076703 -37.95534173 0.23570504 -29.75 -4.6875 C-19.49721913 -8.53517282 -8.86746578 -5.59035886 0 0 Z " fill="#A3008E" transform="translate(71.875,102.8125)"/>
<path d="M0 0 C4.76823399 3.54642362 8.18753142 7.12032791 10.28515625 12.68359375 C10.28515625 16.64359375 10.28515625 20.60359375 10.28515625 24.68359375 C0.05515625 24.68359375 -10.17484375 24.68359375 -20.71484375 24.68359375 C-18.80194321 32.01711703 -18.80194321 32.01711703 -13.71484375 36.68359375 C-8.7001749 37.39997501 -5.7620306 36.69007541 -1.71484375 33.68359375 C-1.05484375 33.02359375 -0.39484375 32.36359375 0.28515625 31.68359375 C2.66796875 31.70703125 2.66796875 31.70703125 5.41015625 32.05859375 C6.32023437 32.16945312 7.2303125 32.2803125 8.16796875 32.39453125 C9.21597656 32.53761719 9.21597656 32.53761719 10.28515625 32.68359375 C8.49903452 38.36670833 5.33138791 41.44732879 0.28515625 44.49609375 C-5.71175802 46.76626042 -13.20199647 47.03000051 -19.19140625 44.734375 C-25.11049279 41.22061014 -28.93513087 36.63374676 -31.16796875 30.046875 C-33.00365221 22.11410006 -32.35456012 14.9922048 -28.34765625 7.8828125 C-21.89077379 -0.8138976 -10.14377809 -4.91863772 0 0 Z " fill="#5C009A" transform="translate(220.71484375,113.31640625)"/>
<path d="M0 0 C3.564736 2.1698393 5.46889374 4.15537194 7 8 C7.68737453 14.40954432 7.88390842 20.59027042 4 26 C1.5111929 28.8717005 -0.77207029 29.28896047 -4.4375 29.5625 C-6.68359375 29.69140625 -6.68359375 29.69140625 -9 29 C-12.66307117 25.62310626 -13.82343661 24.08789367 -14.62890625 19.125 C-14.63284281 17.74982747 -14.61029216 16.37434744 -14.5625 15 C-14.57345703 14.31421875 -14.58441406 13.6284375 -14.59570312 12.921875 C-14.52315361 7.85308239 -13.17451313 4.89248713 -10 1 C-6.79386153 -0.60306924 -3.47860003 -0.48740461 0 0 Z " fill="#130F12" transform="translate(112,121)"/>
<path d="M0 0 C2.97361628 1.78152067 5.42653612 3.85307225 7 7 C8.04675424 20.38472635 8.04675424 20.38472635 5.1875 24.75 C2.33589821 27.68307613 0.73826095 28.91797101 -3.375 29.375 C-7.62859573 28.93497286 -9.08805108 28.078346 -12 25 C-14.69579836 19.49489598 -14.67493005 14.00931694 -14 8 C-11.44609168 1.42022634 -6.84128038 -0.81167733 0 0 Z " fill="#120F13" transform="translate(162,121)"/>
<path d="M0 0 C3.34008454 0.64744392 4.97954049 1.8331262 7.15625 4.41796875 C7.48625 6.39796875 7.81625 8.37796875 8.15625 10.41796875 C1.22625 10.41796875 -5.70375 10.41796875 -12.84375 10.41796875 C-11.27369351 2.5676863 -7.89708618 -0.48698698 0 0 Z " fill="#120F14" transform="translate(212.84375,120.58203125)"/>
</svg>
